<?xml version="1.0" encoding="UTF-8"?>
<svg viewBox="0 0 586 732" version="1.1" xmlns="http://www.w3.org/2000/svg">
<path d="M0 0 C1.4468644 -0.00472824 1.4468644 -0.00472824 2.92295837 -0.009552 C3.95844315 -0.00752777 4.99392792 -0.00550354 6.06079102 -0.00341797 C7.66592308 -0.00485306 7.66592308 -0.00485306 9.30348206 -0.00631714 C11.56544046 -0.00699731 13.82740082 -0.00515436 16.08935547 -0.00097656 C19.54797769 0.00436869 23.00646974 -0.00092438 26.46508789 -0.00732422 C28.66365589 -0.00666331 30.8622238 -0.00538187 33.06079102 -0.00341797 C34.09425156 -0.0054422 35.1277121 -0.00746643 36.19248962 -0.009552 C37.64408226 -0.00482376 37.64408226 -0.00482376 39.125 0 C40.39596779 0.00119339 40.39596779 0.00119339 41.69261169 0.00241089 C44.2525822 0.13593439 46.62906682 0.56759357 49.12719727 1.12939453 C49.12719727 1.78939453 49.12719727 2.44939453 49.12719727 3.12939453 C50.32344727 3.45939453 51.51969727 3.78939453 52.75219727 4.12939453 C63.55053916 7.77977741 72.4962981 13.87075924 80.62719727 21.73486328 C83.11963642 24.20084061 83.11963642 24.20084061 86.04516602 26.41845703 C89.83593662 29.53494871 92.5698867 33.36777787 95.43969727 37.31689453 C95.9765918 38.04070313 96.51348633 38.76451172 97.06665039 39.51025391 C100.94932911 44.77365823 100.94932911 44.77365823 102.12719727 47.12939453 C106.09144198 46.47963803 109.48882178 45.23736546 113.18969727 43.69189453 C131.55355471 36.57667093 153.37526824 37.01236521 171.58569336 44.59082031 C190.20971113 52.98149228 204.92483465 68.66191433 212.76000977 87.48095703 C220.56085333 108.2980653 219.57960409 130.73591435 211.12719727 151.12939453 C203.83741763 165.97741594 190.40408393 181.19257598 175.12719727 188.12939453 C174.2287207 188.30212891 173.33024414 188.47486328 172.40454102 188.65283203 C171.65301758 188.81009766 170.90149414 188.96736328 170.12719727 189.12939453 C169.79719727 189.78939453 169.46719727 190.44939453 169.12719727 191.12939453 C166.48719727 191.45939453 163.84719727 191.78939453 161.12719727 192.12939453 C161.12719727 209.28939453 161.12719727 226.44939453 161.12719727 244.12939453 C166.07719727 244.78939453 171.02719727 245.44939453 176.12719727 246.12939453 C179.20809436 246.95628041 181.99567144 247.75642697 184.93969727 248.87939453 C186.00812866 249.27408936 186.00812866 249.27408936 187.09814453 249.67675781 C196.82383462 253.3917922 205.54109837 258.96295217 213.12719727 266.12939453 C213.12719727 266.78939453 213.12719727 267.44939453 213.12719727 268.12939453 C213.78719727 268.12939453 214.44719727 268.12939453 215.12719727 268.12939453 C226.40907967 280.70991088 235.44335691 296.78338887 235.12719727 314.12939453 C235.72917435 314.13304016 236.33115143 314.13668579 236.95137024 314.14044189 C243.26304614 314.18251701 249.5740117 314.25203496 255.88525391 314.33691406 C258.23511624 314.36499814 260.58507084 314.38627461 262.93505859 314.40039062 C266.32900809 314.42199438 269.7218628 314.4687348 273.11547852 314.52001953 C274.15239334 314.52124817 275.18930817 314.52247681 276.25764465 314.52374268 C286.23743996 314.72048987 295.00145292 317.11363605 302.33813477 324.13330078 C308.07905865 330.53856739 311.22666203 336.06912066 311.27436829 344.76347351 C311.28510124 346.11519905 311.28510124 346.11519905 311.29605103 347.49423218 C311.30008438 348.95852158 311.30008438 348.95852158 311.30419922 350.45239258 C311.31405602 352.00947182 311.31405602 352.00947182 311.32411194 353.5980072 C311.34380179 357.02904335 311.35549811 360.46003581 311.36547852 363.89111328 C311.36955404 365.06556314 311.37362957 366.24001301 311.3778286 367.45005226 C311.39867115 373.66665088 311.41298063 379.88322754 311.42236328 386.09985352 C311.43342259 392.50765495 311.46782269 398.91510867 311.50753498 405.32278728 C311.53372776 410.26175058 311.54205752 415.20063134 311.54564476 420.13965797 C311.55050393 422.5010494 311.56209868 424.86243731 311.58068275 427.2237606 C311.60512957 430.53592583 311.60409862 433.84719529 311.59716797 437.15942383 C311.60997803 438.12549561 311.62278809 439.09156738 311.63598633 440.08691406 C311.56067556 450.01346267 308.11171804 458.96026088 301.12719727 466.12939453 C287.03720055 477.33168874 269.71333797 475.28640147 252.62719727 475.19189453 C251.01391743 475.18686014 249.40063605 475.18230072 247.78735352 475.17822266 C243.90059513 475.16739213 240.01391431 475.15023914 236.12719727 475.12939453 C236.11317871 476.89645752 236.11317871 476.89645752 236.09887695 478.69921875 C236.05834584 483.16148741 235.99242936 487.62311117 235.91967773 492.08496094 C235.89182759 493.99893777 235.87043875 495.91302194 235.85620117 497.82714844 C235.66547435 522.04945472 231.74736705 542.35500082 214.75219727 560.69189453 C213.88594727 561.49626953 213.01969727 562.30064453 212.12719727 563.12939453 C211.55098633 563.72236328 210.97477539 564.31533203 210.38110352 564.92626953 C196.35071122 578.61186958 175.3657051 585.03210751 156.12719727 585.12939453 C155.46719727 584.79939453 154.80719727 584.46939453 154.12719727 584.12939453 C154.12719727 595.34939453 154.12719727 606.56939453 154.12719727 618.12939453 C163.92028754 621.89010019 163.92028754 621.89010019 168.65063477 619.96142578 C169.59165039 619.29498047 170.53266602 618.62853516 171.50219727 617.94189453 C180.89059678 611.52690996 188.9587585 611.07700925 200.12719727 612.12939453 C203.5719094 612.9565014 206.16366389 614.22128451 209.12719727 616.12939453 C210.25834961 616.74814453 210.25834961 616.74814453 211.41235352 617.37939453 C219.2998045 622.01442416 225.16779295 629.52901811 227.68969727 638.38720703 C229.5713457 650.18111064 229.06575489 660.9980785 222.13891602 671.00048828 C214.87761063 680.44394761 207.8447272 684.95761097 196.12719727 687.12939453 C187.20901284 688.24416758 178.29648131 685.55810864 170.12719727 682.12939453 C170.12719727 681.46939453 170.12719727 680.80939453 170.12719727 680.12939453 C169.46719727 680.12939453 168.80719727 680.12939453 168.12719727 680.12939453 C166.50219727 678.75439453 166.50219727 678.75439453 165.12719727 677.12939453 C165.12719727 676.46939453 165.12719727 675.80939453 165.12719727 675.12939453 C164.13719727 674.79939453 163.14719727 674.46939453 162.12719727 674.12939453 C158.08795551 668.88440897 155.41568889 663.7647019 155.12719727 657.12939453 C151.16719727 656.13939453 147.20719727 655.14939453 143.12719727 654.12939453 C143.1376709 655.50603271 143.14814453 656.8826709 143.15893555 658.30102539 C143.19530776 663.43918223 143.2181602 668.57732782 143.23706055 673.71557617 C143.247079 675.93369464 143.26069752 678.15180003 143.27807617 680.36987305 C143.30250777 683.56969442 143.31372223 686.7693402 143.32250977 689.96923828 C143.33283234 690.95085434 143.34315491 691.9324704 143.35379028 692.9438324 C143.35504191 700.73467874 142.71632181 708.19749819 138.62719727 715.00439453 C138.20438477 715.72369141 137.78157227 716.44298828 137.34594727 717.18408203 C136.30171474 718.8508378 135.21820899 720.49287695 134.12719727 722.12939453 C133.46719727 722.12939453 132.80719727 722.12939453 132.12719727 722.12939453 C132.12719727 722.78939453 132.12719727 723.44939453 132.12719727 724.12939453 C130.50665915 725.5184272 128.83014513 726.84272281 127.12719727 728.12939453 C126.06219498 729.16963068 126.06219498 729.16963068 124.97567749 730.23088169 C121.24132458 732.71982891 118.07539916 732.68375606 113.73901367 732.63059998 C112.89705759 732.63613437 112.05510151 732.64166877 111.18763161 732.64737087 C108.36770697 732.66097901 105.54866716 732.64600738 102.72875977 732.63110352 C100.70660018 732.63488663 98.68444318 732.64038661 96.66229248 732.6474762 C91.17058245 732.66144898 85.67918507 732.6502481 80.18749237 732.63376498 C74.44294482 732.61992457 68.69841562 732.62637341 62.95385742 732.62989807 C53.30650793 732.63260099 43.65928279 732.61911752 34.01196289 732.59594727 C22.85507642 732.56933708 11.69839789 732.56759016 0.54149055 732.57933563 C-10.18690529 732.59011131 -20.91522585 732.58392797 -31.64361572 732.56978035 C-36.21130145 732.56401874 -40.77893211 732.56410462 -45.34661865 732.56884575 C-50.72451418 732.57361474 -56.10218172 732.56351691 -61.48003387 732.5418911 C-63.45492535 732.53632202 -65.42983872 732.53585903 -67.40473175 732.54084396 C-70.09828134 732.54679072 -72.7911325 732.53430336 -75.48461914 732.51707458 C-76.65995996 732.52608965 -76.65995996 732.52608965 -77.85904503 732.53528684 C-82.41874021 732.48216587 -85.19513695 731.82822274 -88.87280273 729.12939453 C-89.98655273 728.44876953 -91.10030273 727.76814453 -92.24780273 727.06689453 C-98.63854772 722.44825569 -103.63206701 714.5985136 -105.87280273 707.12939453 C-107.2447256 695.72919781 -106.99112554 684.21386936 -106.93530273 672.75439453 C-106.9302734 670.93929161 -106.92571305 669.12418733 -106.92163086 667.30908203 C-106.91074871 662.91581845 -106.89356468 658.52262207 -106.87280273 654.12939453 C-108.6649113 654.49601347 -110.45029683 654.89560532 -112.23217773 655.30908203 C-113.72442871 655.63755127 -113.72442871 655.63755127 -115.24682617 655.97265625 C-118.07302369 656.90722526 -118.07302369 656.90722526 -119.29907227 659.62060547 C-119.87927822 661.47575123 -120.42415436 663.3421304 -120.94311523 665.21533203 C-123.70041492 673.85796047 -131.10820635 679.94671414 -138.87280273 684.12939453 C-149.65413744 688.40239178 -160.02066325 688.12522307 -170.87280273 684.12939453 C-173.79297423 682.37448378 -176.30268936 680.35269743 -178.87280273 678.12939453 C-179.86280273 677.46939453 -180.85280273 676.80939453 -181.87280273 676.12939453 C-181.87280273 675.46939453 -181.87280273 674.80939453 -181.87280273 674.12939453 C-182.53280273 674.12939453 -183.19280273 674.12939453 -183.87280273 674.12939453 C-185.31030273 672.18798828 -185.31030273 672.18798828 -186.87280273 669.56689453 C-187.38842773 668.71998047 -187.90405273 667.87306641 -188.43530273 667.00048828 C-193.07578989 657.732124 -193.40448957 646.55530438 -190.62280273 636.62939453 C-188.30285777 630.10319422 -185.62195219 625.25698901 -179.87280273 621.12939453 C-179.43967773 620.66275391 -179.00655273 620.19611328 -178.56030273 619.71533203 C-172.40835449 613.93363993 -164.01888653 611.2939017 -155.74389648 611.03564453 C-145.99220995 611.35406695 -139.81055547 614.52938262 -131.87280273 620.12939453 C-130.88280273 620.78939453 -129.89280273 621.44939453 -128.87280273 622.12939453 C-123.42780273 619.65439453 -123.42780273 619.65439453 -117.87280273 617.12939453 C-117.54280273 606.23939453 -117.21280273 595.34939453 -116.87280273 584.12939453 C-120.83280273 584.12939453 -124.79280273 584.12939453 -128.87280273 584.12939453 C-137.35170511 583.05717459 -145.94379637 581.39427951 -153.87280273 578.12939453 C-154.8105957 577.75234375 -154.8105957 577.75234375 -155.76733398 577.36767578 C-173.5111214 569.38116454 -186.86158388 553.98987014 -193.87280273 536.12939453 C-194.41420898 534.81648437 -194.41420898 534.81648437 -194.96655273 533.47705078 C-195.32749023 532.55794922 -195.68842773 531.63884766 -196.06030273 530.69189453 C-196.38385742 529.86818359 -196.70741211 529.04447266 -197.04077148 528.19580078 C-200.14228514 516.76533965 -199.20152431 504.07822058 -199.42504883 492.31811523 C-199.47654147 489.68088879 -199.53379355 487.04383372 -199.59155273 484.40673828 C-199.60512817 483.59019272 -199.61870361 482.77364716 -199.63269043 481.93235779 C-199.36772473 478.22605937 -199.36772473 478.22605937 -200.87280273 475.12939453 C-203.37558617 475.05292112 -205.8510018 475.03877243 -208.35327148 475.06689453 C-209.11771072 475.07068115 -209.88214996 475.07446777 -210.66975403 475.07836914 C-213.94347798 475.0946585 -217.21707743 475.12227942 -220.49072266 475.14990234 C-253.5791439 475.40533353 -253.5791439 475.40533353 -263.56030273 466.81689453 C-264.32342773 465.93001953 -265.08655273 465.04314453 -265.87280273 464.12939453 C-266.46061523 463.51966797 -267.04842773 462.90994141 -267.65405273 462.28173828 C-268.28311523 461.61271484 -268.91217773 460.94369141 -269.56030273 460.25439453 C-270.14166992 459.63822266 -270.72303711 459.02205078 -271.32202148 458.38720703 C-275.45826521 452.36516956 -275.16983058 445.49969471 -275.16333008 438.47167969 C-275.1700473 437.42197495 -275.17676453 436.3722702 -275.1836853 435.29075623 C-275.20262652 431.83327453 -275.20658742 428.37598732 -275.20874023 424.91845703 C-275.2151703 422.50621461 -275.22189882 420.09397297 -275.22891235 417.68173218 C-275.24087504 412.6297627 -275.24459415 407.57786155 -275.2434082 402.52587891 C-275.24320495 396.06420389 -275.2705187 389.60296835 -275.30495262 383.14139748 C-275.32722832 378.16043092 -275.33124554 373.17957007 -275.33018875 368.19855881 C-275.33254324 365.81681172 -275.34135811 363.43506165 -275.35685349 361.0533638 C-275.37652837 357.71723175 -275.37066899 354.38204692 -275.35864258 351.04589844 C-275.36988159 350.07002274 -275.38112061 349.09414703 -275.3927002 348.08869934 C-275.303954 338.3624684 -271.58030186 330.17820446 -264.87280273 323.12939453 C-256.17911512 315.97455309 -248.42631429 314.82488622 -237.47045898 314.93408203 C-236.39275742 314.93691193 -235.31505585 314.93974182 -234.20469666 314.94265747 C-230.78144975 314.9538026 -227.35846983 314.97889698 -223.93530273 315.00439453 C-221.60653049 315.01443164 -219.27775411 315.02355622 -216.94897461 315.03173828 C-211.25682708 315.05372337 -205.56483399 315.0871444 -199.87280273 315.12939453 C-199.7660321 314.56150208 -199.65926147 313.99360962 -199.54925537 313.4085083 C-199.05453045 310.79850404 -198.54967935 308.19055406 -198.04467773 305.58251953 C-197.87693848 304.68936035 -197.70919922 303.79620117 -197.53637695 302.87597656 C-196.15828132 295.81728013 -194.07794096 289.59221423 -190.87280273 283.12939453 C-190.21280273 283.12939453 -189.55280273 283.12939453 -188.87280273 283.12939453 C-188.62530273 282.44876953 -188.37780273 281.76814453 -188.12280273 281.06689453 C-185.51980478 274.94984933 -183.24091325 271.05728028 -177.87280273 267.12939453 C-176.63530273 265.89189453 -176.63530273 265.89189453 -175.37280273 264.62939453 C-162.9541159 252.2107077 -145.23139252 245.08638561 -127.68530273 245.00439453 C-126.42717773 245.04564453 -125.16905273 245.08689453 -123.87280273 245.12939453 C-124.03578857 244.02853516 -124.19877441 242.92767578 -124.36669922 241.79345703 C-125.00134979 236.69106518 -124.99856473 231.63965694 -124.97045898 226.50439453 C-124.96833656 225.02314087 -124.96833656 225.02314087 -124.96617126 223.51196289 C-124.96061201 220.38440817 -124.94806719 217.2569273 -124.93530273 214.12939453 C-124.93028246 211.99788515 -124.92572048 209.86637465 -124.92163086 207.73486328 C-124.91065595 202.53301553 -124.89395886 197.33121031 -124.87280273 192.12939453 C-125.48224731 192.00169678 -126.09169189 191.87399902 -126.71960449 191.74243164 C-127.52361694 191.56977783 -128.32762939 191.39712402 -129.15600586 191.21923828 C-130.34861023 190.96581665 -130.34861023 190.96581665 -131.56530762 190.70727539 C-134.73099772 189.91447124 -137.47805543 188.62153232 -140.37280273 187.12939453 C-141.39374023 186.61376953 -142.41467773 186.09814453 -143.46655273 185.56689453 C-145.87280273 184.12939453 -145.87280273 184.12939453 -146.87280273 182.12939453 C-147.53280273 182.12939453 -148.19280273 182.12939453 -148.87280273 182.12939453 C-148.87280273 181.46939453 -148.87280273 180.80939453 -148.87280273 180.12939453 C-150.52280273 179.46939453 -152.17280273 178.80939453 -153.87280273 178.12939453 C-153.87280273 177.46939453 -153.87280273 176.80939453 -153.87280273 176.12939453 C-154.47350586 175.86151123 -155.07420898 175.59362793 -155.69311523 175.31762695 C-157.90676558 174.11088007 -159.11809084 173.01584127 -160.74780273 171.11767578 C-161.25827148 170.5240625 -161.76874023 169.93044922 -162.29467773 169.31884766 C-162.81545898 168.69945312 -163.33624023 168.08005859 -163.87280273 167.44189453 C-164.39358398 166.84183594 -164.91436523 166.24177734 -165.45092773 165.62353516 C-173.87280273 155.72357856 -173.87280273 155.72357856 -173.87280273 150.12939453 C-174.53280273 149.79939453 -175.19280273 149.46939453 -175.87280273 149.12939453 C-176.65405273 147.41455078 -176.65405273 147.41455078 -177.37280273 145.19189453 C-177.60999023 144.48162109 -177.84717773 143.77134766 -178.09155273 143.03955078 C-180.54608251 133.89642737 -181.23796277 125.28786295 -181.24780273 115.81689453 C-181.27229492 114.58777344 -181.29678711 113.35865234 -181.32202148 112.09228516 C-181.38057702 93.59849673 -173.85326642 78.80298278 -161.87280273 65.12939453 C-161.2656543 64.38947266 -160.65850586 63.64955078 -160.03295898 62.88720703 C-158.69589261 61.25918978 -157.29164439 59.68665976 -155.87280273 58.12939453 C-155.21280273 58.12939453 -154.55280273 58.12939453 -153.87280273 58.12939453 C-153.87280273 57.46939453 -153.87280273 56.80939453 -153.87280273 56.12939453 C-136.85243441 42.15622118 -116.62821326 37.21864669 -94.87280273 39.12939453 C-85.89771341 40.39244817 -77.88677593 42.88670284 -69.87280273 47.12939453 C-67.78033866 47.06333617 -67.78033866 47.06333617 -65.87280273 46.12939453 C-64.54128077 44.52131112 -64.54128077 44.52131112 -63.62280273 42.56689453 C-63.04530273 41.43251953 -62.46780273 40.29814453 -61.87280273 39.12939453 C-61.21280273 39.12939453 -60.55280273 39.12939453 -59.87280273 39.12939453 C-59.64206055 38.58541016 -59.41131836 38.04142578 -59.17358398 37.48095703 C-49.09617178 19.26293257 -26.25082083 6.30602706 -6.96983337 0.56253052 C-4.59633067 0.07228998 -2.42382486 0.00227802 0 0 Z M8.48442078 190.38215637 C6.62620203 192.77435682 6.76517586 194.3257241 6.78662109 197.33520508 C6.78684769 198.39607834 6.78707428 199.4569516 6.78730774 200.54997253 C6.8027916 201.69379898 6.81827545 202.83762543 6.83422852 204.01611328 C6.83847336 205.18825882 6.8427182 206.36040436 6.84709167 207.56806946 C6.86390654 211.31790987 6.90156494 215.0672161 6.93969727 218.81689453 C6.95474042 221.35660032 6.96842947 223.89631452 6.98071289 226.43603516 C7.01126941 232.66752714 7.06998836 238.89786174 7.12719727 245.12939453 C14.71719727 245.12939453 22.30719727 245.12939453 30.12719727 245.12939453 C30.24201284 237.81436692 30.34155069 230.50246681 30.40185547 223.18725586 C30.42699398 220.69919235 30.46110974 218.21120265 30.50439453 215.72338867 C30.56507156 212.14629912 30.5934146 208.57018619 30.61547852 204.99267578 C30.64128494 203.88104568 30.66709137 202.76941559 30.69367981 201.62409973 C30.7480003 195.32583317 30.7480003 195.32583317 27.73706055 189.93652344 C21.90348259 185.89722091 14.2251591 186.00433751 8.48442078 190.38215637 Z M-69.49214172 190.37825012 C-71.37923155 192.77171729 -71.2349507 194.30796323 -71.21337891 197.33520508 C-71.21315231 198.39607834 -71.21292572 199.4569516 -71.21269226 200.54997253 C-71.1972084 201.69379898 -71.18172455 202.83762543 -71.16577148 204.01611328 C-71.16152664 205.18825882 -71.1572818 206.36040436 -71.15290833 207.56806946 C-71.13609346 211.31790987 -71.09843506 215.0672161 -71.06030273 218.81689453 C-71.04525958 221.35660032 -71.03157053 223.89631452 -71.01928711 226.43603516 C-70.98618069 232.66733772 -70.93595302 238.89832797 -70.87280273 245.12939453 C-67.22698586 245.15826965 -63.5811981 245.17615038 -59.93530273 245.19189453 C-58.89438477 245.20027344 -57.8534668 245.20865234 -56.78100586 245.21728516 C-55.79165039 245.22050781 -54.80229492 245.22373047 -53.78295898 245.22705078 C-52.86651611 245.2322876 -51.95007324 245.23752441 -51.00585938 245.24291992 C-48.8891725 245.36860665 -48.8891725 245.36860665 -47.87280273 244.12939453 C-47.76932626 242.65737886 -47.73429643 241.18046668 -47.72753906 239.70483398 C-47.72115921 238.76327957 -47.71477936 237.82172516 -47.70820618 236.85163879 C-47.70709335 235.825681 -47.70598053 234.79972321 -47.70483398 233.74267578 C-47.70150558 232.69291061 -47.69817719 231.64314545 -47.69474792 230.56156921 C-47.68967226 228.33296142 -47.68733979 226.10434599 -47.6875 223.87573242 C-47.68532317 220.47382931 -47.66720084 217.0722554 -47.64819336 213.67041016 C-47.64525761 211.50699981 -47.64327403 209.34358792 -47.64233398 207.18017578 C-47.63514847 206.16433914 -47.62796295 205.1485025 -47.62055969 204.10188293 C-47.63662326 199.10358872 -47.68246102 194.73676095 -49.87280273 190.12939453 C-56.07164132 185.80462343 -63.43916327 185.71011329 -69.49214172 190.37825012 Z M85.95245361 190.88470459 C83.73060714 193.61711883 83.63929916 194.87588985 83.6730957 198.35693359 C83.67339783 199.39771057 83.67369995 200.43848755 83.67401123 201.51080322 C83.69465637 202.6275946 83.71530151 203.74438599 83.73657227 204.89501953 C83.74223206 206.04355408 83.74789185 207.19208862 83.75372314 208.37542725 C83.77611395 212.04384027 83.82631785 215.7112767 83.87719727 219.37939453 C83.89725865 221.86635959 83.91551005 224.35333996 83.93188477 226.84033203 C83.97258592 232.93736515 84.05087742 239.03228672 84.12719727 245.12939453 C91.71719727 245.12939453 99.30719727 245.12939453 107.12719727 245.12939453 C107.21898234 237.65401001 107.29863873 230.18057701 107.34692383 222.70507812 C107.36704998 220.1617165 107.39435364 217.6184012 107.42895508 215.07519531 C107.47742696 211.42127049 107.50015643 207.76795697 107.51782227 204.11376953 C107.53846741 202.97510437 107.55911255 201.83643921 107.5803833 200.66326904 C107.58083649 199.07207245 107.58083649 199.07207245 107.58129883 197.44873047 C107.59018127 196.51607361 107.59906372 195.58341675 107.60821533 194.62249756 C106.97283251 191.32932637 105.74405419 190.16877509 103.12719727 188.12939453 C96.84001921 186.68643563 91.24102102 186.61612077 85.95245361 190.88470459 Z M-144.87280273 301.12939453 C-149.80295254 307.81840859 -151.01869465 312.78182974 -151.04447937 321.06669617 C-151.05082848 321.87230714 -151.05717759 322.67791812 -151.06371909 323.50794154 C-151.08377925 326.21076937 -151.096822 328.91358494 -151.10986328 331.61645508 C-151.12271651 333.55315917 -151.13597094 335.48986064 -151.14959717 337.42655945 C-151.18521873 342.6912002 -151.21444833 347.95585791 -151.2419889 353.22054648 C-151.25949181 356.51053616 -151.27836825 359.80051498 -151.29773903 363.09049416 C-151.36530373 374.5708045 -151.42770119 386.05112983 -151.48535156 397.53149414 C-151.53919917 408.22760822 -151.60430417 418.92361363 -151.67468995 429.61963052 C-151.734637 438.80530389 -151.78668077 447.99100022 -151.8326171 457.1767543 C-151.86018076 462.66164355 -151.89092533 468.14646942 -151.92963219 473.63129234 C-151.96578842 478.79321591 -151.99208651 483.95509815 -152.01091003 489.11711311 C-152.01946133 491.00811054 -152.03148332 492.89909605 -152.04729652 494.79004669 C-152.06839726 497.37914771 -152.07676398 499.96799978 -152.08207703 502.55717468 C-152.09111154 503.29863839 -152.10014605 504.0401021 -152.10945433 504.80403441 C-152.09416237 514.47173368 -150.03581578 521.40381215 -143.56030273 528.75439453 C-137.53258759 534.08121257 -131.75765233 536.24944078 -123.72522449 536.2608223 C-122.70428473 536.26466344 -121.68334497 536.26850459 -120.63146764 536.27246213 C-118.95931039 536.27116241 -118.95931039 536.27116241 -117.25337219 536.26983643 C-116.06375844 536.27280755 -114.87414468 536.27577867 -113.64848202 536.27883983 C-110.34980937 536.28601204 -107.0511888 536.28869852 -103.7525121 536.28943729 C-100.19340568 536.29129061 -96.63431048 536.29883936 -93.07521057 536.30557251 C-85.29409319 536.31914528 -77.51298097 536.32517894 -69.73185372 536.32958317 C-64.87145329 536.33234745 -60.01105484 536.33658516 -55.15065575 536.34108734 C-41.68845526 536.35327877 -28.22625637 536.36357824 -14.76405048 536.36696243 C-13.47202359 536.36729178 -13.47202359 536.36729178 -12.15389515 536.36762778 C-10.85881057 536.3679552 -10.85881057 536.3679552 -9.53756267 536.36828923 C-7.78806261 536.3687327 -6.03856256 536.36917926 -4.2890625 536.36962891 C-3.4212536 536.36985034 -2.5534447 536.37007177 -1.65933856 536.37029991 C12.39830692 536.37424686 26.45590054 536.39169833 40.51352599 536.41498843 C54.95303308 536.43871772 69.39251417 536.45116501 83.83204108 536.45233035 C91.93656064 536.45324624 100.04101262 536.45897681 108.14551353 536.47714996 C115.0474767 536.49257227 121.94935139 536.49765888 128.85132851 536.48941186 C132.37055687 536.48551284 135.88960718 536.48639813 139.40881348 536.50046921 C143.23031127 536.51317327 147.05135379 536.50731957 150.87284851 536.49688721 C151.9764664 536.50494361 153.08008429 536.51300002 154.21714514 536.52130055 C163.38266746 536.46288603 171.87168723 535.04836324 179.12719727 529.12939453 C179.12719727 528.46939453 179.12719727 527.80939453 179.12719727 527.12939453 C180.11719727 526.79939453 181.10719727 526.46939453 182.12719727 526.12939453 C188.07408681 518.27950033 187.41313651 508.67107578 187.33300781 499.31787109 C187.31520277 497.18981291 187.31249588 495.06220561 187.31274414 492.93408203 C187.29391781 485.72788917 187.11735447 478.54544192 186.76200867 471.34791565 C185.89499358 453.55088369 185.97519057 435.75525351 185.99943542 417.94191742 C186.00222298 415.1662905 186.00202002 412.39067919 186.00085449 409.61505127 C185.99377012 390.84105129 186.03651587 372.07428478 186.49438477 353.30517578 C186.52587739 351.95998752 186.55732153 350.61479813 186.5887146 349.26960754 C186.73518438 343.1823778 186.90728448 337.0976247 187.12280273 331.01245117 C187.18207883 328.88217585 187.2408675 326.75188689 187.29907227 324.62158203 C187.34160126 323.69311966 187.38413025 322.76465729 187.427948 321.80805969 C187.60904114 314.02935957 185.56959233 307.01062377 180.81469727 300.75439453 C174.95774961 295.03365496 169.01919355 293.00926792 160.89594555 292.99796677 C159.85635541 292.99412562 158.81676527 292.99028448 157.7456724 292.98632693 C156.04228669 292.98762666 156.04228669 292.98762666 154.30448914 292.98895264 C153.09304649 292.98598151 151.88160384 292.98301039 150.63345081 292.97994924 C147.27390934 292.97277639 143.91441903 292.9700905 140.55487359 292.96935177 C136.93036524 292.96749865 133.30586792 292.95995008 129.68136597 292.95321655 C121.75782541 292.93964396 113.83428991 292.93361037 105.91073966 292.92920589 C100.96257975 292.92644202 96.01442179 292.92220444 91.0662632 292.91770172 C77.36386456 292.90551115 63.66146748 292.89521097 49.95906353 292.89182663 C49.08237109 292.89160706 48.20567865 292.8913875 47.30241977 292.89116128 C46.42364439 292.890943 45.54486901 292.89072472 44.63946408 292.89049983 C42.85876381 292.89005637 41.07806355 292.8896098 39.29736328 292.88916016 C37.97243339 292.88882801 37.97243339 292.88882801 36.62073723 292.88848916 C22.30631328 292.88454059 7.99194021 292.86708383 -6.32246409 292.84380063 C-21.02186434 292.82008433 -35.72123907 292.80762468 -50.42065877 292.80645871 C-58.67266722 292.80554218 -66.92460933 292.79979532 -75.1765995 292.7816391 C-82.20268596 292.76623444 -89.22868556 292.76111985 -96.25478569 292.7693772 C-99.83857355 292.77328224 -103.42218653 292.77236136 -107.00595284 292.75831985 C-110.89375846 292.74322654 -114.78131837 292.75145169 -118.66914368 292.76190186 C-119.79804199 292.75384545 -120.9269403 292.74578905 -122.09004766 292.73748851 C-131.32209495 292.79557231 -138.10662807 294.36321987 -144.87280273 301.12939453 Z M-199.87280273 374.12939453 C-201.95613607 374.2960612 -201.95613607 374.2960612 -203.87280273 375.12939453 C-205.08164432 377.5470777 -205.0124143 379.10573045 -205.03393555 381.80688477 C-205.04354309 382.77806747 -205.05315063 383.74925018 -205.06304932 384.74986267 C-205.06729919 385.80194412 -205.07154907 386.85402557 -205.07592773 387.93798828 C-205.08162781 389.01564957 -205.08732788 390.09331085 -205.09320068 391.20362854 C-205.10265797 393.48592138 -205.10918755 395.76822792 -205.11303711 398.05053711 C-205.12275323 401.54906893 -205.15377458 405.04701605 -205.18530273 408.54541016 C-205.19183152 410.75959936 -205.19708248 412.97379279 -205.20092773 415.18798828 C-205.21327454 416.2380455 -205.22562134 417.28810272 -205.23834229 418.36997986 C-205.23534119 419.34431473 -205.23234009 420.3186496 -205.22924805 421.32250977 C-205.23289368 422.18029526 -205.23653931 423.03808075 -205.24029541 423.92185974 C-205.02771692 426.18723234 -205.02771692 426.18723234 -203.6005249 427.92982483 C-201.67574229 429.50960765 -201.67574229 429.50960765 -197.87280273 429.12939453 C-197.82222309 421.61803045 -197.78712016 414.10671004 -197.76293945 406.59521484 C-197.75286235 404.038232 -197.73920048 401.48126074 -197.72192383 398.92431641 C-197.69775056 395.25566761 -197.68633688 391.58717074 -197.67749023 387.91845703 C-197.66200638 386.19497543 -197.66200638 386.19497543 -197.64620972 384.43667603 C-197.64605865 383.37572723 -197.64590759 382.31477844 -197.64575195 381.22167969 C-197.63909012 379.81603256 -197.63909012 379.81603256 -197.6322937 378.38198853 C-197.65587043 375.92763383 -197.65587043 375.92763383 -199.87280273 374.12939453 Z M235.12719727 375.12939453 C235.12719727 392.61939453 235.12719727 410.10939453 235.12719727 428.12939453 C236.77719727 428.45939453 238.42719727 428.78939453 240.12719727 429.12939453 C241.9823845 425.1786775 242.37367398 422.05962831 242.35766602 417.71142578 C242.35645752 416.46449951 242.35524902 415.21757324 242.35400391 413.93286133 C242.34103271 412.61584229 242.32806152 411.29882324 242.31469727 409.94189453 C242.30717537 408.58748524 242.29993361 407.23307437 242.29296875 405.87866211 C242.24023751 398.35233768 242.09144067 390.83320589 241.68969727 383.31689453 C241.65062256 382.5838208 241.61154785 381.85074707 241.57128906 381.09545898 C241.60702737 377.82652429 241.60702737 377.82652429 240.12719727 375.12939453 C238.47719727 375.12939453 236.82719727 375.12939453 235.12719727 375.12939453 Z M-75.87280273 584.12939453 C-75.87280273 593.03939453 -75.87280273 601.94939453 -75.87280273 611.12939453 C-14.16280273 611.12939453 47.54719727 611.12939453 111.12719727 611.12939453 C115.15487926 603.07403055 112.12719727 593.13556526 112.12719727 584.12939453 C50.08719727 584.12939453 -11.95280273 584.12939453 -75.87280273 584.12939453 Z " fill="currentColor" transform="translate(274.872802734375,-0.12939453125)"/>
<path d="M0 0 C0.99 0.99 0.99 0.99 2 2 C5.51040325 1.89675285 7.73624272 0.5912575 10.5625 -1.3125 C23.37156102 -9.68205692 39.74836364 -10.72664488 54.41796875 -7.68359375 C66.69657251 -4.43282876 76.64436526 3.54599591 86.14453125 11.6328125 C95.74890865 19.59485451 105.35531871 24.36332401 118 25 C126.3188837 24.13671962 135.05078467 19.94921533 141 14 C143.9375 13.75 143.9375 13.75 147 14 C150.52606425 19.28909637 149.41349403 24.71873463 148.3125 30.79296875 C145.32011736 44.46794236 140.0415903 55.06246763 130 65 C129.11248047 65.93779297 129.11248047 65.93779297 128.20703125 66.89453125 C115.44550265 79.3743484 94.10611468 85.82001225 76.70507812 86.02734375 C53.11327087 85.76290396 32.35451493 81.03761352 13 67 C13 66.34 13 65.68 13 65 C12.443125 64.773125 11.88625 64.54625 11.3125 64.3125 C8.36753316 62.64103234 6.31843456 60.44723648 4 58 C1.0894079 60.36908659 -1.66742404 62.64894759 -4.25 65.375 C-20.76932605 81.14344759 -41.97336942 85.23287545 -64 85.3125 C-65.03679901 85.31642761 -65.03679901 85.31642761 -66.09454346 85.32043457 C-76.56638558 85.32468907 -86.09432728 84.69385731 -96 81 C-96.84433594 80.69964844 -97.68867188 80.39929688 -98.55859375 80.08984375 C-112.34370253 74.57102204 -125.88107582 64.17000974 -133 51 C-133 50.34 -133 49.68 -133 49 C-133.66 48.67 -134.32 48.34 -135 48 C-139.12916564 38.66449507 -142.52761248 27.2766658 -141 17 C-139 14 -139 14 -136.4375 13.4375 C-131.40521872 14.26096421 -128.05876264 17.03368936 -124 20 C-117.52376522 24.53336435 -110.36238462 25.63581795 -102.60546875 24.6015625 C-91.84838571 22.11791814 -82.96622102 15.4533287 -74.58349609 8.59960938 C-52.14268487 -9.72901131 -26.17563522 -15.53231908 0 0 Z " fill="currentColor" transform="translate(289,433)"/>
<path d="M0 0 C7.0785983 5.03645401 12.87857026 12.63928104 15 21.125 C16.18582975 33.45762939 14.59206158 43.38137441 6.78125 53.32421875 C1.22613435 59.36409685 -6.38494738 63.85609046 -14.6875 64.375 C-15.42484375 64.42527344 -16.1621875 64.47554688 -16.921875 64.52734375 C-28.26604394 64.96772298 -37.42722139 61.1373019 -45.75 53.4765625 C-52.98125483 45.63298367 -56.02674092 37.03003816 -55.6875 26.5 C-54.63135604 16.53661786 -48.7986859 7.63949404 -41.1875 1.3125 C-28.52187979 -7.79827142 -13.15914258 -8.02930734 0 0 Z " fill="currentColor" transform="translate(406.6875,350.625)"/>
<path d="M0 0 C6.54907675 5.59118317 11.21192196 12.81664739 12.6875 21.375 C13.57688314 32.74293363 11.94565313 41.58179858 4.50390625 50.40625 C-1.87178671 57.3166785 -9.80766359 61.92500014 -19.33203125 62.49609375 C-30.34498087 62.81503778 -39.68510588 59.25854986 -47.90234375 51.90234375 C-49.73186213 49.92078783 -50.62549428 47.97035495 -51.3125 45.375 C-51.9725 45.375 -52.6325 45.375 -53.3125 45.375 C-57.7034372 36.02039467 -58.73823926 25.55929655 -55.5 15.6875 C-54.81484709 13.8991767 -54.09003308 12.12513629 -53.3125 10.375 C-53.01214844 9.67632812 -52.71179688 8.97765625 -52.40234375 8.2578125 C-48.40064009 1.344475 -39.09071736 -4.71130183 -31.5 -6.9375 C-19.7586842 -9.29952251 -9.64145567 -7.13005853 0 0 Z " fill="currentColor" transform="translate(221.3125,352.625)"/>
<path d="M0 0 C2.77977909 2.4007183 3.89944325 4.50277375 5 8 C5.18639286 10.80062915 5.27009297 13.49971203 5.25396729 16.29879761 C5.25708727 17.13117545 5.26020725 17.9635533 5.26342177 18.82115471 C5.27139493 21.6085438 5.26508072 24.39571478 5.25878906 27.18310547 C5.26149927 29.18231331 5.26506036 31.18152015 5.26940918 33.1807251 C5.2785331 38.61050279 5.27498857 44.04020454 5.26865101 49.46998358 C5.26358966 55.15220184 5.26828297 60.83441357 5.27142334 66.51663208 C5.27506318 76.0613929 5.27026403 85.60612278 5.26074219 95.15087891 C5.24986385 106.18272029 5.25337865 117.2144877 5.264395 128.24632728 C5.27347479 137.71822774 5.27474957 147.19010595 5.26951766 156.66200936 C5.26640098 162.31893445 5.26598024 167.9758248 5.27259064 173.63274765 C5.27837328 178.95313981 5.27435029 184.27343678 5.26280212 189.59381866 C5.2601602 191.54530047 5.26091264 193.49679029 5.26532745 195.44826889 C5.27080292 198.11469868 5.2639244 200.7808246 5.25396729 203.44723511 C5.25842873 204.21718807 5.26289017 204.98714103 5.26748681 205.78042591 C5.23304674 210.54456845 4.50226932 214.47323908 3 219 C2.34 219 1.68 219 1 219 C1.14219971 218.4652002 1.28439941 217.93040039 1.4309082 217.37939453 C3.17840554 209.94391964 3.27164333 202.63487201 3.20581055 195.03759766 C3.18794265 192.92727984 3.18529924 190.81741575 3.18554688 188.70703125 C3.16669817 181.53639448 2.98843901 174.38958273 2.6348114 167.22758484 C1.76803254 149.42758351 1.84731307 131.62883197 1.87203598 113.81252289 C1.8750276 111.03689713 1.87527356 108.2612839 1.87466431 105.48565674 C1.8715746 86.71257652 1.91527847 67.94480997 2.33203125 49.17578125 C2.34651306 48.50412745 2.36099487 47.83247364 2.37591553 47.14046669 C2.52202575 40.38680361 2.69306254 33.63488546 2.90771484 26.88305664 C2.96344565 24.75277292 3.01896116 22.62248355 3.07421875 20.4921875 C3.11158646 19.56372513 3.14895416 18.63526276 3.18745422 17.67866516 C3.33528841 11.30487462 2.15335686 5.9913157 0 0 Z " fill="currentColor" transform="translate(458,304)"/>
<path d="M0 0 C1.29179569 3.92256059 1.1161185 7.85979041 1.07556152 11.93730164 C1.07162683 12.74291261 1.06769214 13.54852358 1.06363821 14.37854701 C1.04921886 17.081437 1.02750536 19.78421949 1.00585938 22.48706055 C0.994079 24.4237593 0.98276324 26.36046093 0.97187805 28.29716492 C0.94748848 32.47034293 0.91992984 36.6434839 0.88996887 40.8166256 C0.84271923 47.41855806 0.80326135 54.0205229 0.76501465 60.62251282 C0.67569628 75.83536935 0.57631517 91.04815703 0.47657013 106.26094818 C0.38530738 120.1897285 0.29619269 134.11851299 0.2156148 148.04735976 C0.17737239 154.60642172 0.13405247 161.16542441 0.08683014 167.72442758 C0.05844942 171.81217403 0.03443413 175.89993781 0.01158714 179.98771858 C0.0001249 181.87870861 -0.01313926 183.76968874 -0.02837181 185.66065216 C-0.04897798 188.2496917 -0.06303738 190.83869066 -0.07556152 193.42778015 C-0.08304743 194.16924386 -0.09053334 194.91070757 -0.0982461 195.67463988 C-0.11373068 200.85195012 0.3580584 205.86185291 1 211 C0.01 210.34 -0.98 209.68 -2 209 C-2.29878458 206.30401764 -2.39988931 203.83670992 -2.3742218 201.13789368 C-2.37819621 200.31624621 -2.38217061 199.49459875 -2.38626546 198.64805287 C-2.39593417 195.87888374 -2.38404272 193.11021972 -2.37231445 190.34106445 C-2.37474101 188.36200265 -2.37845899 186.38294207 -2.38337708 184.40388489 C-2.39281146 179.01521043 -2.38333764 173.62671681 -2.37004495 168.23805642 C-2.35875295 162.6038689 -2.36283641 156.96969058 -2.36479187 151.335495 C-2.36567592 141.86694374 -2.35457425 132.39846392 -2.33618164 122.92993164 C-2.31504285 111.98505826 -2.31149701 101.04028981 -2.3177436 90.09540015 C-2.32344185 79.5725957 -2.31778417 69.04982817 -2.30657005 58.52702904 C-2.30192707 54.04753117 -2.30104897 49.56805591 -2.3031559 45.08855629 C-2.30504177 39.80841346 -2.2969118 34.52837714 -2.2810955 29.24825859 C-2.2768578 27.31129522 -2.27599864 25.37432104 -2.27878571 23.43735504 C-2.28201596 20.79046187 -2.27290417 18.14388518 -2.26069641 15.49702454 C-2.26447573 14.73280711 -2.26825506 13.96858968 -2.27214891 13.18121415 C-2.23348942 8.43279128 -1.49513395 4.51248117 0 0 Z " fill="currentColor" transform="translate(124,309)"/>
<path d="M0 0 C0.66 0.33 1.32 0.66 2 1 C-0.73218309 5.09827463 -3.20958488 5.25820469 -7.85021305 6.41264188 C-13.08760276 7.38928678 -18.22572101 7.40928554 -23.53991699 7.3742218 C-25.3639372 7.38018341 -25.3639372 7.38018341 -27.22480631 7.38626546 C-30.56921513 7.39417505 -33.91310397 7.38878018 -37.25746965 7.37751496 C-40.87564733 7.36862077 -44.49379156 7.37713115 -48.11196899 7.38337708 C-55.18549578 7.39283458 -62.2589201 7.38629335 -69.33243924 7.37411413 C-77.57082331 7.36045955 -85.80918327 7.36213485 -94.04757577 7.36424746 C-108.74169912 7.36743248 -123.43577387 7.35579453 -138.12988281 7.33618164 C-152.39096555 7.31715175 -166.65199141 7.31010193 -180.91308594 7.31567383 C-196.45251746 7.32172724 -211.99192403 7.32156473 -227.53135347 7.310188 C-229.18684165 7.30898071 -230.84232982 7.30777472 -232.49781799 7.30657005 C-233.31232763 7.30596651 -234.12683727 7.30536298 -234.96602902 7.30474115 C-240.71103373 7.30085879 -246.45602915 7.30125674 -252.20103455 7.3031559 C-259.19417742 7.30527454 -266.18727043 7.30007822 -273.18039924 7.28554235 C-276.74938914 7.27828443 -280.31830632 7.27423332 -283.8873024 7.27878571 C-287.75023479 7.28359339 -291.61303413 7.27297507 -295.47595215 7.26069641 C-296.611431 7.26447573 -297.74690986 7.26825506 -298.91679716 7.27214891 C-299.94707171 7.26631671 -300.97734626 7.26048452 -302.03884125 7.25447559 C-302.93091703 7.25360882 -303.82299281 7.25274204 -304.74210119 7.251849 C-307 7 -307 7 -310 5 C-309.06303132 5.00170874 -309.06303132 5.00170874 -308.10713398 5.003452 C-271.07227547 5.07060979 -234.03742597 5.12207159 -197.00251902 5.15319599 C-192.5540881 5.15694804 -188.1056573 5.16083101 -183.65722656 5.16479492 C-182.77163708 5.16558185 -181.8860476 5.16636878 -180.97362207 5.16717956 C-166.64083611 5.18022773 -152.30808631 5.20387833 -137.97532178 5.23145839 C-123.26477432 5.25952898 -108.55424578 5.27617976 -93.84367263 5.28226548 C-84.76901011 5.28637849 -75.69444979 5.2993616 -66.61981873 5.3237494 C-60.3940631 5.339627 -54.16836018 5.34439578 -47.94258578 5.34050413 C-44.35250447 5.33858573 -40.76260157 5.34149306 -37.17255211 5.35761642 C-33.27424063 5.37499572 -29.37615963 5.36894503 -25.47781372 5.36076355 C-24.35133049 5.36950207 -23.22484726 5.3782406 -22.06422818 5.38724393 C-14.09829204 5.34212051 -6.74854464 4.49902976 0 0 Z " fill="currentColor" transform="translate(451,530)"/>
<path d="M0 0 C0.33 0.66 0.66 1.32 1 2 C0.54394379 3.20783142 0.54394379 3.20783142 0.07867432 4.44006348 C-1.40054171 9.32190324 -1.27881519 13.88557345 -1.25878906 18.95898438 C-1.2622937 20.05237625 -1.26579834 21.14576813 -1.26940918 22.27229309 C-1.27819759 25.87951035 -1.27238742 29.48653081 -1.265625 33.09375 C-1.26697248 35.60428912 -1.2689137 38.11482798 -1.27142334 40.62536621 C-1.27437069 45.88421632 -1.27028083 51.14301543 -1.26074219 56.40185547 C-1.24985884 62.47195302 -1.25338488 68.54191619 -1.264395 74.61201048 C-1.27458246 80.46395618 -1.27348139 86.31585102 -1.26763153 92.1678009 C-1.26629793 94.65249144 -1.26793262 97.13718542 -1.27259064 99.62187195 C-1.27767288 103.09501209 -1.26992142 106.56789465 -1.25878906 110.04101562 C-1.26283752 111.06665115 -1.26688599 112.09228668 -1.27105713 113.14900208 C-1.24128085 118.16680971 -0.99705888 122.30067353 1 127 C-2.33704308 124.09354313 -3.3763547 122.34230974 -4 118 C-4.09120401 116.44230573 -4.13870367 114.88156707 -4.14717102 113.32122803 C-4.15432632 112.41021835 -4.16148163 111.49920868 -4.16885376 110.56059265 C-4.17154266 109.57347794 -4.17423157 108.58636322 -4.17700195 107.56933594 C-4.18357315 106.51992325 -4.19014435 105.47051056 -4.19691467 104.38929749 C-4.21660397 100.92098922 -4.22830006 97.45272415 -4.23828125 93.984375 C-4.24235678 92.79764442 -4.2464323 91.61091385 -4.25063133 90.38822174 C-4.27147256 84.10793737 -4.28578322 77.82767473 -4.29516602 71.54736328 C-4.30623155 65.06996302 -4.34063922 58.59290616 -4.38033772 52.11562729 C-4.40651183 47.12609224 -4.41485855 42.13663898 -4.41844749 37.14704132 C-4.42331064 34.75970386 -4.4349168 32.37236999 -4.45348549 29.98509979 C-4.47789487 26.63920518 -4.47690825 23.29419902 -4.4699707 19.94824219 C-4.48278076 18.9692244 -4.49559082 17.9902066 -4.50878906 16.98152161 C-4.45990992 10.48931539 -3.09385388 5.70801518 0 0 Z " fill="currentColor" transform="translate(4,331)"/>
<path d="M0 0 C0.33 0 0.66 0 1 0 C1 2.97 1 5.94 1 9 C-1.18556519 9.02187378 -1.18556519 9.02187378 -3.4152832 9.04418945 C-8.86311386 9.10251777 -14.31054603 9.1797472 -19.75805664 9.26245117 C-22.10792535 9.29553882 -24.45787044 9.3236201 -26.80786133 9.34643555 C-30.20166329 9.38027995 -33.59477529 9.43261007 -36.98828125 9.48828125 C-38.54365349 9.49786613 -38.54365349 9.49786613 -40.13044739 9.50764465 C-51.8754679 9.68065509 -51.8754679 9.68065509 -61.98042297 14.83198547 C-63.51627063 16.65089282 -63.51627063 16.65089282 -64.78125 18.57421875 C-65.38453125 19.27998047 -65.38453125 19.27998047 -66 20 C-66.99 20 -67.98 20 -69 20 C-67.63105483 16.81496676 -66.19586421 15.02716986 -63.4375 12.9375 C-62.81746094 12.45152344 -62.19742188 11.96554687 -61.55859375 11.46484375 C-54.0717577 7.17848723 -46.89344519 6.57880845 -38.40234375 6.70703125 C-36.79003624 6.71339851 -36.79003624 6.71339851 -35.14515686 6.71989441 C-31.74234002 6.73656661 -28.34013512 6.77419777 -24.9375 6.8125 C-22.61784715 6.82756163 -20.29818493 6.84124744 -17.97851562 6.85351562 C-12.3188048 6.88643248 -6.65944614 6.93651639 -1 7 C-0.67 4.69 -0.34 2.38 0 0 Z " fill="currentColor" transform="translate(76,308)"/>
<path d="M0 0 C1.64671412 0.30782496 3.29235576 0.62139234 4.9375 0.9375 C5.85402344 1.11152344 6.77054688 1.28554688 7.71484375 1.46484375 C10 2 10 2 11 3 C12.56448383 3.12263388 14.13432772 3.17779522 15.70336914 3.20532227 C17.20481224 3.2352401 17.20481224 3.2352401 18.73658752 3.26576233 C20.36937904 3.29083107 20.36937904 3.29083107 22.03515625 3.31640625 C23.14354355 3.33718735 24.25193085 3.35796844 25.39390564 3.37937927 C28.95003808 3.44499623 32.50624703 3.50381596 36.0625 3.5625 C38.46680493 3.60567368 40.87110199 3.64928758 43.27539062 3.69335938 C49.18351635 3.80152195 55.0916964 3.9005051 61 4 C61.33 20.17 61.66 36.34 62 53 C61.67 53 61.34 53 61 53 C60.10657807 47.58069065 59.81028281 42.30746017 59.71875 36.8203125 C59.68099789 35.07031232 59.64323723 33.32031233 59.60546875 31.5703125 C59.55159991 28.83140341 59.49938672 26.09246774 59.44775391 23.35351562 C59.39622135 20.69651581 59.33895387 18.03968429 59.28125 15.3828125 C59.26767456 14.55685577 59.25409912 13.73089905 59.2401123 12.87991333 C59.51217364 9.13298358 59.51217364 9.13298358 58 6 C55.49721657 5.92352659 53.02180093 5.9093779 50.51953125 5.9375 C49.75509201 5.94128662 48.99065277 5.94507324 48.20304871 5.94897461 C44.92932476 5.96526396 41.65572531 5.99288489 38.38208008 6.02050781 C8.47002985 6.25141851 8.47002985 6.25141851 0 1 C0 0.67 0 0.34 0 0 Z " fill="currentColor" transform="translate(16,469)"/>
<path d="M0 0 C2.99241715 3.38570626 4.08499499 6.9445247 5.125 11.25 C5.38047607 12.30574219 5.38047607 12.30574219 5.64111328 13.3828125 C9.11953586 28.67019074 8.57449927 44.00259099 4 59 C3.3154264 56.87021546 2.8780938 55.45755072 3.4621582 53.26538086 C4.59261554 48.50391302 4.18589021 43.46575577 4.18530273 38.5949707 C4.18745905 36.60038131 4.20587702 34.60583072 4.22460938 32.61132812 C4.55391986 18.89325895 4.55391986 18.89325895 0.93041992 5.88891602 C0 4 0 4 0 0 Z " fill="currentColor" transform="translate(485,84)"/>
<path d="M0 0 C0.67998047 0.12600586 1.35996094 0.25201172 2.06054688 0.38183594 C5.13706077 1.01449341 6.79698723 1.35948723 9.0625 3.625 C2.45008621 2.71741379 2.45008621 2.71741379 -0.1328125 2.1015625 C-3.97530315 1.44866019 -7.73361305 1.43394478 -11.625 1.4375 C-12.45281982 1.43758057 -13.28063965 1.43766113 -14.13354492 1.43774414 C-24.82615925 1.5339645 -35.40896114 2.79035665 -45.9375 4.625 C-43.68422107 2.37172107 -42.33168247 1.9551685 -39.3125 1.0625 C-38.49523437 0.81371094 -37.67796875 0.56492188 -36.8359375 0.30859375 C-24.86125827 -2.51562305 -12.04221513 -2.24207756 0 0 Z " fill="currentColor" transform="translate(432.9375,40.375)"/>
<path d="M0 0 C0.66 0.66 1.32 1.32 2 2 C1.07775635 1.99476318 0.1555127 1.98952637 -0.79467773 1.98413086 C-4.25562175 1.96696628 -7.71651972 1.95449058 -11.17749023 1.94506836 C-12.66805745 1.94007672 -14.15861986 1.93328106 -15.64916992 1.92456055 C-23.49484991 1.87984832 -31.21373172 1.8851679 -39 3 C-30.76317775 -5.23682225 -10.33647764 -3.00091286 0 0 Z " fill="currentColor" transform="translate(346,426)"/>
<path d="M0 0 C1.98 0 3.96 0 6 0 C6 0.33 6 0.66 6 1 C4.35 1 2.7 1 1 1 C1 18.49 1 35.98 1 54 C2.98 54 4.96 54 7 54 C7 54.66 7 55.32 7 56 C3.535 56.495 3.535 56.495 0 57 C0 38.19 0 19.38 0 0 Z " fill="currentColor" transform="translate(509,374)"/>
<path d="M0 0 C-6.9368796 4.27676263 -12.34368231 4.47731046 -20.375 4.171875 C-21.5400708 4.14401917 -22.7051416 4.11616333 -23.90551758 4.08746338 C-27.60450905 3.99454791 -31.301889 3.87270895 -35 3.75 C-37.51687583 3.68167879 -40.03380385 3.615252 -42.55078125 3.55078125 C-48.70129451 3.38911617 -54.85074425 3.20373578 -61 3 C-61 2.67 -61 2.34 -61 2 C-60.3935817 1.99191315 -59.78716339 1.98382629 -59.16236877 1.97549438 C-52.81873529 1.88906229 -46.47540049 1.78954432 -40.13208008 1.68261719 C-37.76852456 1.64446664 -35.40491374 1.60959013 -33.04125977 1.578125 C-29.63277495 1.53217113 -26.22466633 1.47422731 -22.81640625 1.4140625 C-21.76916885 1.40251129 -20.72193146 1.39096008 -19.64295959 1.37905884 C-14.90364153 1.28492374 -10.50787087 1.00847348 -5.88647461 -0.08837891 C-2 -1 -2 -1 0 0 Z " fill="currentColor" transform="translate(570,470)"/>
<path d="M0 0 C0.66 0.33 1.32 0.66 2 1 C-4.3311237 8.10032564 -10.69658097 14.86873464 -18 21 C-18 16.61305328 -15.24722277 14.63981539 -12.375 11.625 C-11.85292969 11.06039063 -11.33085937 10.49578125 -10.79296875 9.9140625 C-7.40617436 6.30148181 -3.86293875 3.09731125 0 0 Z " fill="currentColor" transform="translate(234,18)"/>
<path d="M0 0 C0.33 0 0.66 0 1 0 C1.02505615 0.7520874 1.0501123 1.5041748 1.07592773 2.27905273 C1.19150514 5.66539196 1.31440345 9.05142613 1.4375 12.4375 C1.47681641 13.62150391 1.51613281 14.80550781 1.55664062 16.02539062 C1.59853516 17.15009766 1.64042969 18.27480469 1.68359375 19.43359375 C1.72025146 20.47572021 1.75690918 21.51784668 1.79467773 22.59155273 C1.73515341 24.9499826 1.73515341 24.9499826 3 26 C3.23481693 28.18292774 3.41363323 30.37203174 3.5625 32.5625 C3.64628906 33.76003906 3.73007813 34.95757812 3.81640625 36.19140625 C3.87699219 37.11824219 3.93757813 38.04507813 4 39 C4.66 39 5.32 39 6 39 C6.33 41.31 6.66 43.62 7 46 C5 45 5 45 4.21875 43.28515625 C3.86296875 42.18494141 3.86296875 42.18494141 3.5 41.0625 C3.2628125 40.35222656 3.025625 39.64195312 2.78125 38.91015625 C0.3735566 29.94149835 -0.25965074 21.66590111 -0.125 12.375 C-0.11597656 11.18003906 -0.10695313 9.98507813 -0.09765625 8.75390625 C-0.07431077 5.83572166 -0.04156656 2.91797224 0 0 Z " fill="currentColor" transform="translate(94,104)"/>
<path d="M0 0 C4.97468389 0.81403918 8.56050799 3.41193386 12.4375 6.5625 C12.7675 7.2225 13.0975 7.8825 13.4375 8.5625 C10.76617456 7.5978547 8.65400113 6.73840717 6.4375 4.9375 C3.93291782 3.21559975 2.416912 3.24040141 -0.5625 3.5625 C-2.55866554 5.55866554 -1.97233427 9.37951963 -2.125 12.125 C-2.16818359 12.83591797 -2.21136719 13.54683594 -2.25585938 14.27929688 C-2.36221777 16.04011912 -2.46288846 17.8012832 -2.5625 19.5625 C-2.8925 19.5625 -3.2225 19.5625 -3.5625 19.5625 C-4.66809488 14.31092433 -5.10568537 8.91149492 -4.5625 3.5625 C-2.5625 0.5625 -2.5625 0.5625 0 0 Z " fill="currentColor" transform="translate(152.5625,446.4375)"/>
<path d="M0 0 C0.66 0.33 1.32 0.66 2 1 C0 4 0 4 -3 5 C-4.61070961 6.62689134 -4.61070961 6.62689134 -6.1875 8.625 C-9.77482388 12.87153297 -13.73176717 16.45237791 -18 20 C-18 16.07290865 -16.72099538 15.1810287 -14.125 12.3125 C-13.40570313 11.50425781 -12.68640625 10.69601563 -11.9453125 9.86328125 C-10 8 -10 8 -8 8 C-8 7.34 -8 6.68 -8 6 C-6.25 4.4921875 -6.25 4.4921875 -4 2.875 C-3.2575 2.33617187 -2.515 1.79734375 -1.75 1.2421875 C-0.88375 0.62730469 -0.88375 0.62730469 0 0 Z " fill="currentColor" transform="translate(129,50)"/>
<path d="M0 0 C-0.66 0.33 -1.32 0.66 -2 1 C-3.0209375 0.53464844 -4.041875 0.06929687 -5.09375 -0.41015625 C-9.26900393 -2.30436436 -12.96401213 -2.48212958 -17.5 -2.4375 C-18.22058594 -2.45748047 -18.94117187 -2.47746094 -19.68359375 -2.49804688 C-23.70160778 -2.49441395 -26.33568987 -2.0415915 -29.78125 0.08984375 C-33 2 -33 2 -35.4375 1.75 C-35.953125 1.5025 -36.46875 1.255 -37 1 C-35.46378265 0.17724328 -33.92071368 -0.63272577 -32.375 -1.4375 C-31.51648438 -1.88996094 -30.65796875 -2.34242188 -29.7734375 -2.80859375 C-20.06238652 -6.98024241 -8.82991002 -5.36720021 0 0 Z " fill="currentColor" transform="translate(137,616)"/>
<path d="M0 0 C0.33 0 0.66 0 1 0 C1.94404848 7.16465364 2.02733252 14.1937665 1.96875 21.4140625 C2.0059936 25.68776609 2.40653121 29.77153484 3 34 C2.01 33.34 1.02 32.68 0 32 C-0.26727014 29.51659097 -0.34866334 27.28527932 -0.29296875 24.8046875 C-0.28872391 24.09724396 -0.28447906 23.38980042 -0.28010559 22.66091919 C-0.26329547 20.39856095 -0.22564128 18.13708952 -0.1875 15.875 C-0.17245607 14.34246077 -0.15876716 12.8099076 -0.14648438 11.27734375 C-0.11338462 7.51788682 -0.06158825 3.75909382 0 0 Z " fill="currentColor" transform="translate(122,486)"/>
<path d="M0 0 C5.2219001 5.93397739 5.31697429 12.55737215 5.203125 20.109375 C4.951294 23.69312389 4.22416362 26.63355004 3 30 C2.08075133 27.24225398 1.900906 25.7670599 1.97265625 22.9453125 C1.98490234 22.16542969 1.99714844 21.38554687 2.00976562 20.58203125 C2.04475618 18.95173043 2.08378021 17.32151091 2.12695312 15.69140625 C2.18936138 11.2347223 1.88064759 8.11529942 0 4 C0 2.68 0 1.36 0 0 Z " fill="currentColor" transform="translate(229,363)"/>
<path d="M0 0 C0.33 0.66 0.66 1.32 1 2 C0.69916504 2.85674316 0.39833008 3.71348633 0.08837891 4.59619141 C-1.18864777 8.58997919 -1.35070277 12.31151072 -1.4140625 16.4609375 C-1.43342865 17.25150543 -1.4527948 18.04207336 -1.4727478 18.8565979 C-1.53216053 21.36262483 -1.57877427 23.86869865 -1.625 26.375 C-1.66321513 28.08205043 -1.70226889 29.78908231 -1.7421875 31.49609375 C-1.83783011 35.66391044 -1.92200115 39.8318173 -2 44 C-2.33 44 -2.66 44 -3 44 C-3.07438973 38.69811034 -3.12871511 33.39652732 -3.16479492 28.09423828 C-3.1798424 26.29210108 -3.2002853 24.49000027 -3.22631836 22.68798828 C-3.26288021 20.09137979 -3.27976681 17.49525725 -3.29296875 14.8984375 C-3.31619453 13.69808365 -3.31619453 13.69808365 -3.33988953 12.47348022 C-3.34135602 7.55264974 -2.61929386 4.32017327 0 0 Z " fill="currentColor" transform="translate(4,331)"/>
<path d="M0 0 C2.875 -0.1875 2.875 -0.1875 6 0 C9.70203656 5.55305485 8.25638675 12.31614367 7 18.625 C6.676436 20.08553194 6.34677029 21.54480325 6 23 C5.67 23 5.34 23 5 23 C5 15.74 5 8.48 5 1 C3.02 1.33 1.04 1.66 -1 2 C-0.67 1.34 -0.34 0.68 0 0 Z " fill="currentColor" transform="translate(430,447)"/>
<path d="M0 0 C1.62490954 -0.02698189 3.24994633 -0.04638757 4.875 -0.0625 C5.77992188 -0.07410156 6.68484375 -0.08570313 7.6171875 -0.09765625 C10 0 10 0 12 1 C14.10374996 1.15441209 16.21195119 1.24992639 18.3203125 1.31640625 C19.57714844 1.35830078 20.83398438 1.40019531 22.12890625 1.44335938 C24.10697266 1.50233398 24.10697266 1.50233398 26.125 1.5625 C27.46485751 1.60569512 28.80470156 1.64930973 30.14453125 1.69335938 C33.42957815 1.79970981 36.71470281 1.90173808 40 2 C40 2.33 40 2.66 40 3 C35.74993401 3.04990593 31.50002901 3.08595579 27.24975586 3.10986328 C25.80766829 3.11984313 24.36560054 3.13343184 22.92358398 3.15087891 C15.0353929 3.24384199 7.65948967 3.17375461 0 1 C0 0.67 0 0.34 0 0 Z " fill="currentColor" transform="translate(200,515)"/>
<path d="M0 0 C0.66 0.33 1.32 0.66 2 1 C0.90653119 2.34212062 -0.2001575 3.67347975 -1.3125 5 C-1.92738281 5.7425 -2.54226562 6.485 -3.17578125 7.25 C-5 9 -5 9 -8 9 C-8.10957031 9.62648438 -8.21914062 10.25296875 -8.33203125 10.8984375 C-8.49058594 11.71570313 -8.64914063 12.53296875 -8.8125 13.375 C-8.96332031 14.18710937 -9.11414063 14.99921875 -9.26953125 15.8359375 C-10 18 -10 18 -13 20 C-11.90997589 10.84379748 -7.87881145 6.59867389 -1 1 C-0.67 0.67 -0.34 0.34 0 0 Z " fill="currentColor" transform="translate(179,351)"/>
<path d="M0 0 C0.33 0 0.66 0 1 0 C1.33 12.87 1.66 25.74 2 39 C-1.37249981 34.50333358 -1.33912758 32.23559058 -1.07421875 26.953125 C-1.04777786 26.18192322 -1.02133698 25.41072144 -0.99409485 24.6161499 C-0.90652497 22.15996169 -0.79731258 19.70528442 -0.6875 17.25 C-0.62422086 15.5820849 -0.56235548 13.91411551 -0.50195312 12.24609375 C-0.35101594 8.16325206 -0.18066749 4.0816298 0 0 Z " fill="currentColor" transform="translate(170,672)"/>
<path d="M0 0 C5.00504791 0.51776358 9.24047027 1.32016598 14 3 C17.65734574 4.03481072 21.32766791 5.01984019 25 6 C25 6.33 25 6.66 25 7 C16.13040984 6.29635819 7.86557832 5.4369929 0 1 C0 0.67 0 0.34 0 0 Z " fill="currentColor" transform="translate(119,576)"/>
<path d="M0 0 C-0.65226562 0.20753906 -1.30453125 0.41507812 -1.9765625 0.62890625 C-7.73766572 2.65973762 -11.20468095 4.57739741 -14.74609375 9.609375 C-15.36677734 10.29773438 -15.36677734 10.29773438 -16 11 C-16.99 11 -17.98 11 -19 11 C-16.6066719 5.32965342 -11.55836922 2.33732937 -6.25 -0.4375 C-3.72310961 -1.0692226 -2.45835942 -0.70755303 0 0 Z " fill="currentColor" transform="translate(26,317)"/>
<path d="M0 0 C0 0.66 0 1.32 0 2 C-0.70125 2.391875 -1.4025 2.78375 -2.125 3.1875 C-5.31619152 5.19933813 -7.20645049 7.39879725 -9.58203125 10.28125 C-11.27345536 12.33146105 -13.01652115 14.22903674 -15 16 C-15.66 16 -16.32 16 -17 16 C-17 15.01 -17 14.02 -17 13 C-15.37946188 11.61096733 -13.70294787 10.28667172 -12 9 C-11.175 8.175 -10.35 7.35 -9.5 6.5 C-3 0 -3 0 0 0 Z " fill="currentColor" transform="translate(109,258)"/>
<path d="M0 0 C0.66 0.33 1.32 0.66 2 1 C-0.71767996 5.07651995 -3.14901811 5.26390779 -7.7578125 6.4375 C-13.16944901 7.37638633 -18.52889787 7.23484858 -24 7 C-24 6.67 -24 6.34 -24 6 C-22.9378125 5.90203125 -21.875625 5.8040625 -20.78125 5.703125 C-12.98313395 4.90414525 -6.88059762 3.99074662 0 0 Z " fill="currentColor" transform="translate(451,530)"/>
<path d="M0 0 C1.36834889 3.69454201 0.55716488 5.47589001 -1 9 C-1.33 10.175625 -1.66 11.35125 -2 12.5625 C-2.79450773 15.29362034 -3.62075715 17.53706635 -5 20 C-6.29047599 16.12857202 -5.42485574 14.41448024 -4.1875 10.5625 C-3.83042969 9.42941406 -3.47335938 8.29632813 -3.10546875 7.12890625 C-2.21700583 4.61421084 -1.26913304 2.33727215 0 0 Z " fill="currentColor" transform="translate(100,84)"/>
<path d="M0 0 C0.804375 0.144375 1.60875 0.28875 2.4375 0.4375 C5.11893803 0.86088495 7.7403103 1.17886537 10.4375 1.4375 C14.48639952 1.86297758 18.12550501 2.76345905 22 4 C22 4.33 22 4.66 22 5 C15.01429045 5.4030217 8.64073049 4.22719884 2 2 C1.34 1.34 0.68 0.68 0 0 Z " fill="currentColor" transform="translate(326,512)"/>
<path d="M0 0 C1.34739637 3.36849092 0.63065327 5.55679156 -0.453125 8.91796875 C-1.48944457 12.86338539 -1.68981853 16.94315292 -2 21 C-5.15378412 16.26932382 -3.90415369 11.44644959 -3 6 C-2.19997096 3.71360121 -1.31038296 2.05103419 0 0 Z " fill="currentColor" transform="translate(355,365)"/>
<path d="M0 0 C0.33 0 0.66 0 1 0 C1 5.61 1 11.22 1 17 C2.98 17 4.96 17 7 17 C7 17.66 7 18.32 7 19 C4.69 19.33 2.38 19.66 0 20 C0 13.4 0 6.8 0 0 Z " fill="currentColor" transform="translate(509,411)"/>
<path d="M0 0 C5.61076515 6.12083471 5.28752602 14.20485005 5 22 C4.67 22 4.34 22 4 22 C3.81824219 20.67935547 3.81824219 20.67935547 3.6328125 19.33203125 C3.46523438 18.17058594 3.29765625 17.00914062 3.125 15.8125 C2.96257812 14.66394531 2.80015625 13.51539063 2.6328125 12.33203125 C2.12031517 9.05295271 2.12031517 9.05295271 0.9296875 6.32421875 C0 4 0 4 0 0 Z " fill="currentColor" transform="translate(417,363)"/>
<path d="M0 0 C2.31 0 4.62 0 7 0 C3.62787619 2.24808254 0.7125039 3.05160443 -3.1875 4.125 C-4.16879883 4.39763672 -4.16879883 4.39763672 -5.16992188 4.67578125 C-6.77862343 5.12199044 -8.38914131 5.56164215 -10 6 C-10.66 5.34 -11.32 4.68 -12 4 C-8.04 3.34 -4.08 2.68 0 2 C0 1.34 0 0.68 0 0 Z " fill="currentColor" transform="translate(254,512)"/>
<path d="M0 0 C0.66 0.33 1.32 0.66 2 1 C0.92492371 2.29854721 -0.16043736 3.58858361 -1.25 4.875 C-1.85328125 5.59429687 -2.4565625 6.31359375 -3.078125 7.0546875 C-4.97087634 8.97052118 -6.53657727 9.96449045 -9 11 C-7.44095325 7.17324889 -4.96833913 4.81992217 -2 2 C-1.34 1.34 -0.68 0.68 0 0 Z " fill="currentColor" transform="translate(367,351)"/>
<path d="M0 0 C2 2 2 2 2 6 C2.66 6 3.32 6 4 6 C4.33 8.31 4.66 10.62 5 13 C3 12 3 12 2.1484375 10.0390625 C1.89320312 9.24242187 1.63796875 8.44578125 1.375 7.625 C1.11460938 6.83351562 0.85421875 6.04203125 0.5859375 5.2265625 C0 3 0 3 0 0 Z " fill="currentColor" transform="translate(96,137)"/>
<path d="M0 0 C0.721875 0.144375 1.44375 0.28875 2.1875 0.4375 C3.5796875 0.7159375 3.5796875 0.7159375 5 1 C5.86625 1.185625 6.7325 1.37125 7.625 1.5625 C10.08923328 2.09058121 10.08923328 2.09058121 13 2 C12.01 2.99 11.02 3.98 10 5 C6.08788267 3.84414715 3.1254959 2.64465038 0 0 Z " fill="currentColor" transform="translate(431,619)"/>
<path d="M0 0 C0.66 0.33 1.32 0.66 2 1 C1.38348417 2.6490302 0.75652258 4.29415841 0.125 5.9375 C-0.22304687 6.85402344 -0.57109375 7.77054687 -0.9296875 8.71484375 C-2 11 -2 11 -4 12 C-3.45660208 7.43545749 -2.20536179 4.0271824 0 0 Z " fill="currentColor" transform="translate(170,359)"/>
<path d="M0 0 C-0.556875 0.268125 -1.11375 0.53625 -1.6875 0.8125 C-4.08808046 1.98723915 -4.08808046 1.98723915 -6.5 3.6875 C-9 5 -9 5 -11.15625 4.58203125 C-11.7646875 4.38996094 -12.373125 4.19789063 -13 4 C-4.738041 -0.59225513 -4.738041 -0.59225513 0 0 Z " fill="currentColor" transform="translate(194,346)"/>
<path d="M0 0 C0 0.66 0 1.32 0 2 C-7.42857143 4.42857143 -7.42857143 4.42857143 -11 3 C-4.5 0 -4.5 0 0 0 Z " fill="currentColor" transform="translate(131,248)"/>
<path d="M0 0 C1.64767247 0.28109113 3.29313145 0.57518526 4.9375 0.875 C5.85402344 1.03742188 6.77054688 1.19984375 7.71484375 1.3671875 C8.46894531 1.57601563 9.22304688 1.78484375 10 2 C10.33 2.66 10.66 3.32 11 4 C8 5 8 5 5.95703125 4.22265625 C5.24933594 3.83980469 4.54164062 3.45695312 3.8125 3.0625 C3.09707031 2.68222656 2.38164062 2.30195313 1.64453125 1.91015625 C1.10183594 1.60980469 0.55914063 1.30945313 0 1 C0 0.67 0 0.34 0 0 Z " fill="currentColor" transform="translate(16,469)"/>
<path d="M0 0 C3.14958831 3.42346555 3.56179109 6.44262737 4 11 C1.9656541 9.58480285 1.09589607 8.45017877 0.578125 6.01953125 C0.33726048 4.01823046 0.16467259 2.0090056 0 0 Z " fill="currentColor" transform="translate(229,363)"/>
<path d="M0 0 C2.61885488 2.36944013 4.41866551 4.83733102 6 8 C5.67 8.99 5.34 9.98 5 11 C4.67 9.68 4.34 8.36 4 7 C3.34 7 2.68 7 2 7 C0 4 0 4 0 0 Z " fill="currentColor" transform="translate(498,280)"/>
<path d="M0 0 C0.95465783 2.16967689 1.14401212 3.56328793 0.3984375 5.82421875 C-0.35870385 7.5684743 -1.17609198 9.28627131 -2 11 C-2.95465783 8.83032311 -3.14401212 7.43671207 -2.3984375 5.17578125 C-1.64129615 3.4315257 -0.82390802 1.71372869 0 0 Z " fill="currentColor" transform="translate(81,291)"/>
<path d="" fill="currentColor" transform="translate(0,0)"/>
<path d="" fill="currentColor" transform="translate(0,0)"/>
</svg>
